<svg viewBox="0 0 13 14" fill="black" xmlns="http://www.w3.org/2000/svg">
    <path fill-rule="evenodd" clip-rule="evenodd"
          d="M8.75 0C9.09518 0 9.375 0.279822 9.375 0.625V1.25H10.625C11.6605 1.25 12.5 2.08947 12.5 3.125V11.875C12.5 12.9105 11.6605 13.75 10.625 13.75H1.875C0.839466 13.75 0 12.9105 0 11.875V3.125C0 2.08947 0.839466 1.25 1.875 1.25H3.125V0.625C3.125 0.279822 3.40482 0 3.75 0C4.09518 0 4.375 0.279822 4.375 0.625V1.25H8.125V0.625C8.125 0.279822 8.40482 0 8.75 0ZM11.25 6.25H1.25V11.875C1.25 12.2202 1.52982 12.5 1.875 12.5H10.625C10.9702 12.5 11.25 12.2202 11.25 11.875V6.25Z"
          fill="black"/>
</svg>
