<svg width="17" height="17" viewBox="0 0 17 17" fill="none" xmlns="http://www.w3.org/2000/svg">
<path fill-rule="evenodd" clip-rule="evenodd" d="M13.9907 12.2952C14.0255 12.2998 14.0602 12.3045 14.0949 12.3094L14.2682 12.3337C15.0227 12.4396 15.6978 11.8645 15.6978 11.1158V10.5445C15.6978 10.009 15.3551 9.53141 14.8418 9.35132C14.2504 9.14385 13.6399 9.00855 13.0236 8.94544C13.6655 9.41203 14.0633 10.1652 14.0633 10.9868V11.6962C14.0633 11.9033 14.0381 12.1039 13.9907 12.2952ZM11.375 8.18385C11.6326 8.29055 11.9158 8.34954 12.2129 8.34954C13.405 8.34954 14.3713 7.40035 14.3713 6.22946C14.3713 5.05857 13.405 4.10938 12.2129 4.10938C12.1782 4.10938 12.1436 4.11018 12.1092 4.11178C12.325 4.57262 12.4456 5.08697 12.4456 5.62948C12.4456 6.62956 12.0358 7.53393 11.375 8.18385Z" fill="#CCCCCC"/>
<path fill-rule="evenodd" clip-rule="evenodd" d="M3.70652 12.2952C3.67178 12.2998 3.63705 12.3045 3.60234 12.3094L3.42904 12.3337C2.67452 12.4396 1.99946 11.8645 1.99946 11.1158V10.5445C1.99946 10.009 2.34213 9.53141 2.85548 9.35132C3.44688 9.14385 4.05737 9.00855 4.67367 8.94544C4.0318 9.41203 3.63395 10.1652 3.63395 10.9868V11.6962C3.63395 11.9033 3.65916 12.1039 3.70652 12.2952ZM6.32227 8.18385C6.06463 8.29055 5.78149 8.34954 5.48433 8.34954C4.2923 8.34954 3.32598 7.40035 3.32598 6.22946C3.32598 5.05857 4.2923 4.10938 5.48433 4.10938C5.51912 4.10938 5.55371 4.11018 5.5881 4.11178C5.37227 4.57262 5.25168 5.08697 5.25168 5.62948C5.25168 6.62956 5.66146 7.53393 6.32227 8.18385Z" fill="#CCCCCC"/>
<path fill-rule="evenodd" clip-rule="evenodd" d="M11.4954 5.63218C11.4954 4.17847 10.3169 3 8.86319 3C7.40948 3 6.23101 4.17847 6.23101 5.63218C6.23101 7.0859 7.40948 8.26437 8.86319 8.26437C10.3169 8.26437 11.4954 7.0859 11.4954 5.63218Z" fill="#CCCCCC"/>
<path fill-rule="evenodd" clip-rule="evenodd" d="M5.65723 9.50812C7.73042 8.76769 9.99598 8.76769 12.0692 9.50812C12.6952 9.73171 13.1131 10.3247 13.1131 10.9895V11.6989C13.1131 12.6284 12.2899 13.3424 11.3697 13.2109L11.1583 13.1807C9.63598 12.9633 8.09042 12.9633 6.56805 13.1807L6.3567 13.2109C5.43654 13.3424 4.61328 12.6284 4.61328 11.6989V10.9895C4.61328 10.3247 5.03118 9.73171 5.65723 9.50812Z" fill="#CCCCCC"/>
</svg>
