<svg viewBox="0 0 31 31" fill="none" xmlns="http://www.w3.org/2000/svg">
    <g clip-path="url(#clip0_937_16212)">
        <path d="M26.2253 17.7449V25.907C26.2253 26.508 25.7381 26.9952 25.137 26.9952H24.0487C23.4477 26.9952 22.9605 26.508 22.9605 25.907V24.8187H7.72459V25.907C7.72459 26.508 7.23734 26.9952 6.63631 26.9952H5.54803C4.947 26.9952 4.45976 26.508 4.45976 25.907V17.7449L3.10753 17.4069C2.62307 17.2857 2.2832 16.8504 2.2832 16.351V15.5683C2.2832 15.2679 2.52682 15.0242 2.82734 15.0242H4.86786L7.19497 8.81856C7.51354 7.96905 8.32565 7.40625 9.23294 7.40625H21.4521C22.3594 7.40625 23.1715 7.96905 23.4901 8.81856L25.8172 15.0242H27.8577C28.1582 15.0242 28.4018 15.2679 28.4018 15.5683V16.351C28.4018 16.8504 28.062 17.2857 27.5775 17.4069L26.2253 17.7449ZM6.63631 19.3773V21.5538C6.63631 22.1549 7.12355 22.6421 7.72459 22.6421H11.256C11.3455 22.6421 11.4336 22.62 11.5126 22.5778C11.7775 22.4361 11.8775 22.1065 11.7358 21.8415C10.8573 20.1987 9.15754 19.3773 6.63631 19.3773ZM24.0487 19.3773C21.5275 19.3773 19.8276 20.1987 18.9492 21.8415C18.8075 22.1065 18.9075 22.4361 19.1725 22.5778C19.2514 22.62 19.3395 22.6421 19.429 22.6421H22.9605C23.5615 22.6421 24.0487 22.1549 24.0487 21.5538V19.3773ZM8.81286 9.5828L7.11378 14.6801C7.07679 14.791 7.05794 14.9072 7.05794 15.0242C7.05794 15.6252 7.54517 16.1125 8.14622 16.1125H22.5389C22.6559 16.1125 22.772 16.0936 22.883 16.0566C23.4531 15.8665 23.7613 15.2502 23.5713 14.6801L21.8722 9.5828H8.81286Z"/>
    </g>
    <defs>
        <clipPath id="clip0_937_16212">
            <rect width="26.1186" height="26.1186" fill="white" transform="translate(2.28516 3.04688)"/>
        </clipPath>
    </defs>
</svg>
