<svg viewBox="0 0 214 52" fill="none" xmlns="http://www.w3.org/2000/svg">
    <path d="M36.5928 17.4695H30.6797L26.3091 38H18.376L22.7466 17.4695H16.907L17.568 14.6782H37.2171L36.5928 17.4695ZM35.1699 22.2073H41.1564L41.7073 24.9618H41.9644C42.5276 24.0804 43.2499 23.3336 44.1313 22.7215C45.0128 22.1093 46.1758 21.8033 47.6204 21.8033C47.7184 21.8033 47.8653 21.8155 48.0612 21.84C48.2815 21.84 48.5141 21.8767 48.759 21.9502C49.0283 21.9992 49.2976 22.0848 49.567 22.2073C49.8608 22.3052 50.1424 22.4521 50.4117 22.648L48.7957 30.2138H44.7924C44.7435 28.6958 44.6088 27.6429 44.3884 27.0553C44.1681 26.4432 43.813 26.1371 43.3233 26.1371C43.0785 26.1371 42.8092 26.1983 42.5153 26.3207C42.246 26.4187 41.9644 26.6513 41.6706 27.0185L39.3201 38H31.8277L35.1699 22.2073ZM52.5932 23.5662C53.842 22.9541 55.1152 22.5133 56.4129 22.244C57.7351 21.9502 59.2041 21.8033 60.8201 21.8033C62.3872 21.8033 63.6849 21.9257 64.7132 22.1705C65.7416 22.4154 66.5618 22.7704 67.174 23.2356C67.7861 23.7008 68.2146 24.2518 68.4594 24.8884C68.7043 25.525 68.8267 26.2473 68.8267 27.0553C68.8267 27.5205 68.79 28.0224 68.7165 28.5611C68.6675 29.0998 68.6063 29.5527 68.5329 29.92L66.8067 38H60.8936L60.2325 35.6495H60.0121C59.2286 36.5064 58.3105 37.1675 57.2576 37.6327C56.2292 38.0735 55.2009 38.2938 54.1725 38.2938C53.5849 38.2938 53.0095 38.2081 52.4463 38.0367C51.8832 37.8653 51.3812 37.6082 50.9405 37.2655C50.4998 36.8982 50.1448 36.4452 49.8754 35.9065C49.6061 35.3434 49.4714 34.6701 49.4714 33.8865C49.4714 32.6133 49.8142 31.6095 50.4998 30.8749C51.2098 30.1159 52.128 29.5527 53.2543 29.1855C54.4051 28.7937 55.6906 28.5488 57.1107 28.4509C58.5553 28.353 59.9999 28.304 61.4445 28.304C61.4935 28.0592 61.5547 27.7164 61.6281 27.2756C61.7016 26.8104 61.7383 26.4064 61.7383 26.0636C61.7383 25.6229 61.6159 25.2189 61.3711 24.8516C61.1507 24.4599 60.6732 24.264 59.9387 24.264C59.0817 24.264 58.4451 24.5211 58.0289 25.0353C57.6371 25.525 57.38 26.1248 57.2576 26.8349H51.8954L52.5932 23.5662ZM61.0405 30.0302H60.3794C59.6694 30.0302 59.0572 30.1281 58.5431 30.324C58.0534 30.4954 57.6494 30.728 57.3311 31.0218C57.0372 31.3156 56.8169 31.6462 56.67 32.0135C56.5231 32.3807 56.4496 32.748 56.4496 33.1153C56.4496 33.7029 56.5965 34.1436 56.8903 34.4375C57.2086 34.7313 57.5759 34.8782 57.9921 34.8782C58.5063 34.8782 59.0083 34.6945 59.498 34.3273C60.0121 33.96 60.3305 33.4703 60.4529 32.8582L61.0405 30.0302ZM70.855 22.2073H78.6412L80.147 33.0051L85.5092 22.2073H89.4023L81.0652 38H73.3892L70.855 22.2073ZM96.0815 30.6178C95.9835 31.1565 95.9101 31.6707 95.8611 32.1604C95.8366 32.6501 95.8244 33.0908 95.8244 33.4825C95.8244 33.7029 95.8366 33.9478 95.8611 34.2171C95.8856 34.4864 95.9346 34.7435 96.008 34.9884C96.106 35.2087 96.2284 35.4046 96.3753 35.576C96.5467 35.7229 96.7793 35.7964 97.0731 35.7964C97.2935 35.7964 97.5383 35.7229 97.8077 35.576C98.1015 35.4291 98.3831 35.221 98.6524 34.9516C98.9462 34.6823 99.2155 34.3518 99.4604 33.96C99.7297 33.5682 99.9378 33.1275 100.085 32.6378H106.108L105.153 36.5676C104.663 36.8859 104.1 37.1553 103.464 37.3756C102.827 37.596 102.154 37.7796 101.444 37.9265C100.734 38.049 100.011 38.1347 99.2768 38.1836C98.5422 38.2571 97.8444 38.2938 97.1833 38.2938C95.9591 38.2938 94.8205 38.1836 93.7677 37.9633C92.7148 37.7429 91.7966 37.3634 91.0131 36.8247C90.2296 36.2861 89.6052 35.576 89.14 34.6945C88.6993 33.7886 88.4789 32.6745 88.4789 31.3524C88.4789 30.1526 88.6626 28.9773 89.0298 27.8265C89.4216 26.6758 90.0582 25.6596 90.9397 24.7782C91.8456 23.8722 93.0454 23.1499 94.5389 22.6113C96.057 22.0726 97.9423 21.8033 100.195 21.8033C102.643 21.8033 104.48 22.1828 105.704 22.9418C106.953 23.7008 107.577 24.8884 107.577 26.5044C107.577 27.1655 107.479 27.8878 107.283 28.6713C107.087 29.4303 106.794 30.0792 106.402 30.6178H96.0815ZM100.966 26.2473C100.966 25.4882 100.844 24.9741 100.599 24.7047C100.354 24.4354 100.06 24.3007 99.7175 24.3007C99.3257 24.3007 98.9585 24.4354 98.6157 24.7047C98.2974 24.9496 98.0035 25.2924 97.7342 25.7331C97.4649 26.1493 97.22 26.639 96.9997 27.2022C96.7793 27.7408 96.5957 28.3162 96.4488 28.9284H100.636C100.685 28.6345 100.734 28.3285 100.783 28.0102C100.832 27.7408 100.868 27.447 100.893 27.1287C100.942 26.8104 100.966 26.5166 100.966 26.2473ZM115.285 38H107.793L113.008 13.3193H120.537L115.285 38ZM152.908 38H144.754L148.133 22.1338L139.429 38H134.434L132.781 21.5829L129.255 38H125.95L130.908 14.6782H140.274L141.412 27.8265L148.464 14.6782H157.903L152.908 38ZM159.583 23.5662C160.832 22.9541 162.105 22.5133 163.403 22.244C164.725 21.9502 166.194 21.8033 167.81 21.8033C169.377 21.8033 170.675 21.9257 171.703 22.1705C172.731 22.4154 173.552 22.7704 174.164 23.2356C174.776 23.7008 175.204 24.2518 175.449 24.8884C175.694 25.525 175.816 26.2473 175.816 27.0553C175.816 27.5205 175.78 28.0224 175.706 28.5611C175.657 29.0998 175.596 29.5527 175.523 29.92L173.796 38H167.883L167.222 35.6495H167.002C166.218 36.5064 165.3 37.1675 164.247 37.6327C163.219 38.0735 162.191 38.2938 161.162 38.2938C160.575 38.2938 159.999 38.2081 159.436 38.0367C158.873 37.8653 158.371 37.6082 157.93 37.2655C157.489 36.8982 157.134 36.4452 156.865 35.9065C156.596 35.3434 156.461 34.6701 156.461 33.8865C156.461 32.6133 156.804 31.6095 157.489 30.8749C158.2 30.1159 159.118 29.5527 160.244 29.1855C161.395 28.7937 162.68 28.5488 164.1 28.4509C165.545 28.353 166.99 28.304 168.434 28.304C168.483 28.0592 168.544 27.7164 168.618 27.2756C168.691 26.8104 168.728 26.4064 168.728 26.0636C168.728 25.6229 168.606 25.2189 168.361 24.8516C168.14 24.4599 167.663 24.264 166.928 24.264C166.071 24.264 165.435 24.5211 165.019 25.0353C164.627 25.525 164.37 26.1248 164.247 26.8349H158.885L159.583 23.5662ZM168.03 30.0302H167.369C166.659 30.0302 166.047 30.1281 165.533 30.324C165.043 30.4954 164.639 30.728 164.321 31.0218C164.027 31.3156 163.807 31.6462 163.66 32.0135C163.513 32.3807 163.439 32.748 163.439 33.1153C163.439 33.7029 163.586 34.1436 163.88 34.4375C164.198 34.7313 164.566 34.8782 164.982 34.8782C165.496 34.8782 165.998 34.6945 166.488 34.3273C167.002 33.96 167.32 33.4703 167.443 32.8582L168.03 30.0302ZM178.319 22.2073C179.225 22.0114 180.02 21.791 180.706 21.5462C181.392 21.3013 182.016 20.9953 182.579 20.628C183.167 20.2607 183.718 19.8078 184.232 19.2691C184.77 18.7304 185.346 18.0693 185.958 17.2858H189.741L188.676 22.2073H191.541L191.063 24.668H188.162L186.656 31.8298C186.533 32.393 186.435 32.8949 186.362 33.3356C186.289 33.7764 186.252 34.1192 186.252 34.364C186.252 34.8537 186.423 35.1598 186.766 35.2822C187.133 35.4046 187.807 35.4658 188.786 35.4658L188.235 38C188.064 38.049 187.794 38.0857 187.427 38.1102C187.084 38.1347 186.693 38.1592 186.252 38.1836C185.836 38.2326 185.395 38.2571 184.93 38.2571C184.489 38.2816 184.097 38.2938 183.754 38.2938C183.142 38.2938 182.542 38.2448 181.955 38.1469C181.367 38.0735 180.841 37.9143 180.375 37.6695C179.91 37.4001 179.531 37.0206 179.237 36.5309C178.968 36.0412 178.833 35.3801 178.833 34.5476C178.833 34.2538 178.845 33.8865 178.87 33.4458C178.919 33.0051 179.004 32.5154 179.127 31.9767L180.669 24.668H177.805L178.319 22.2073ZM198.695 30.6178C198.598 31.1565 198.524 31.6707 198.475 32.1604C198.451 32.6501 198.438 33.0908 198.438 33.4825C198.438 33.7029 198.451 33.9478 198.475 34.2171C198.5 34.4864 198.549 34.7435 198.622 34.9884C198.72 35.2087 198.842 35.4046 198.989 35.576C199.161 35.7229 199.393 35.7964 199.687 35.7964C199.907 35.7964 200.152 35.7229 200.422 35.576C200.715 35.4291 200.997 35.221 201.266 34.9516C201.56 34.6823 201.83 34.3518 202.074 33.96C202.344 33.5682 202.552 33.1275 202.699 32.6378H208.722L207.767 36.5676C207.277 36.8859 206.714 37.1553 206.078 37.3756C205.441 37.596 204.768 37.7796 204.058 37.9265C203.348 38.049 202.625 38.1347 201.891 38.1836C201.156 38.2571 200.458 38.2938 199.797 38.2938C198.573 38.2938 197.434 38.1836 196.382 37.9633C195.329 37.7429 194.411 37.3634 193.627 36.8247C192.844 36.2861 192.219 35.576 191.754 34.6945C191.313 33.7886 191.093 32.6745 191.093 31.3524C191.093 30.1526 191.277 28.9773 191.644 27.8265C192.036 26.6758 192.672 25.6596 193.554 24.7782C194.46 23.8722 195.659 23.1499 197.153 22.6113C198.671 22.0726 200.556 21.8033 202.809 21.8033C205.257 21.8033 207.094 22.1828 208.318 22.9418C209.567 23.7008 210.191 24.8884 210.191 26.5044C210.191 27.1655 210.093 27.8878 209.897 28.6713C209.701 29.4303 209.408 30.0792 209.016 30.6178H198.695ZM203.58 26.2473C203.58 25.4882 203.458 24.9741 203.213 24.7047C202.968 24.4354 202.674 24.3007 202.331 24.3007C201.94 24.3007 201.572 24.4354 201.23 24.7047C200.911 24.9496 200.618 25.2924 200.348 25.7331C200.079 26.1493 199.834 26.639 199.614 27.2022C199.393 27.7408 199.21 28.3162 199.063 28.9284H203.25C203.299 28.6345 203.348 28.3285 203.397 28.0102C203.446 27.7408 203.482 27.447 203.507 27.1287C203.556 26.8104 203.58 26.5166 203.58 26.2473Z"
          fill="#3FB6A6"/>
    <path d="M52.5 3H14L3 47H37M58.5 47H189" stroke="#3FB6A6" stroke-width="6" stroke-linecap="round"
          stroke-linejoin="round"/>
    <circle cx="47.5" cy="47" r="5" fill="#3FB6A6"/>
    <circle cx="200.5" cy="47" r="5" fill="#3FB6A6"/>
</svg>
