<svg viewBox="0 0 79 20" fill="none" xmlns="http://www.w3.org/2000/svg">
    <path d="M14.2882 6.77906H12.1252L10.5265 14.2891H7.62461L9.22334 6.77906H7.08722L7.32905 5.75802H14.5166L14.2882 6.77906ZM13.7677 8.51214H15.9576L16.1591 9.51974H16.2532C16.4592 9.19731 16.7234 8.92413 17.0458 8.70022C17.3682 8.47631 17.7937 8.36435 18.3221 8.36435C18.3579 8.36435 18.4117 8.36883 18.4833 8.37779C18.5639 8.37779 18.649 8.39122 18.7386 8.41809C18.8371 8.43601 18.9356 8.46735 19.0341 8.51214C19.1416 8.54796 19.2446 8.6017 19.3431 8.67335L18.752 11.4409H17.2876C17.2697 10.8856 17.2205 10.5005 17.1398 10.2855C17.0592 10.0616 16.9294 9.94965 16.7502 9.94965C16.6607 9.94965 16.5622 9.97204 16.4547 10.0168C16.3562 10.0526 16.2532 10.1377 16.1457 10.2721L15.2859 14.2891H12.5452L13.7677 8.51214ZM20.1411 9.00922C20.5979 8.78531 21.0637 8.62409 21.5384 8.52557C22.022 8.41809 22.5594 8.36435 23.1505 8.36435C23.7237 8.36435 24.1984 8.40914 24.5746 8.4987C24.9508 8.58827 25.2508 8.71814 25.4747 8.88831C25.6986 9.05848 25.8554 9.26 25.9449 9.49287C26.0345 9.72574 26.0793 9.98995 26.0793 10.2855C26.0793 10.4557 26.0659 10.6393 26.039 10.8363C26.0211 11.0334 25.9987 11.1991 25.9718 11.3334L25.3404 14.2891H23.1774L22.9356 13.4292H22.855C22.5683 13.7427 22.2325 13.9845 21.8474 14.1547C21.4712 14.3159 21.095 14.3965 20.7188 14.3965C20.5039 14.3965 20.2934 14.3652 20.0874 14.3025C19.8814 14.2398 19.6978 14.1458 19.5366 14.0204C19.3754 13.886 19.2455 13.7203 19.147 13.5233C19.0485 13.3173 18.9992 13.071 18.9992 12.7844C18.9992 12.3186 19.1246 11.9514 19.3754 11.6827C19.6351 11.4051 19.971 11.1991 20.383 11.0647C20.8039 10.9214 21.2741 10.8319 21.7936 10.796C22.322 10.7602 22.8505 10.7423 23.3789 10.7423C23.3968 10.6527 23.4192 10.5273 23.4461 10.3661C23.473 10.196 23.4864 10.0482 23.4864 9.92278C23.4864 9.76156 23.4416 9.61378 23.352 9.47944C23.2714 9.33613 23.0968 9.26448 22.8281 9.26448C22.5146 9.26448 22.2817 9.35852 22.1295 9.54661C21.9862 9.72574 21.8921 9.94517 21.8474 10.2049H19.8859L20.1411 9.00922ZM23.2311 11.3737H22.9893C22.7296 11.3737 22.5057 11.4096 22.3176 11.4812C22.1384 11.5439 21.9907 11.629 21.8742 11.7365C21.7667 11.8439 21.6861 11.9649 21.6324 12.0992C21.5787 12.2336 21.5518 12.3679 21.5518 12.5022C21.5518 12.7172 21.6055 12.8784 21.713 12.9859C21.8294 13.0934 21.9638 13.1471 22.116 13.1471C22.3041 13.1471 22.4877 13.0799 22.6669 12.9456C22.855 12.8112 22.9714 12.6321 23.0162 12.4082L23.2311 11.3737ZM26.8212 8.51214H29.6694L30.2202 12.4619L32.1817 8.51214H33.6058L30.5561 14.2891H27.7482L26.8212 8.51214ZM36.049 11.5887C36.0132 11.7857 35.9863 11.9738 35.9684 12.1529C35.9594 12.3321 35.955 12.4933 35.955 12.6366C35.955 12.7172 35.9594 12.8068 35.9684 12.9053C35.9773 13.0038 35.9953 13.0979 36.0221 13.1874C36.058 13.268 36.1027 13.3397 36.1565 13.4024C36.2192 13.4561 36.3043 13.483 36.4117 13.483C36.4923 13.483 36.5819 13.4561 36.6804 13.4024C36.7879 13.3486 36.8909 13.2725 36.9894 13.174C37.0969 13.0755 37.1954 12.9545 37.285 12.8112C37.3835 12.6679 37.4596 12.5067 37.5134 12.3276H39.7167L39.3674 13.7651C39.1882 13.8815 38.9822 13.9801 38.7494 14.0607C38.5165 14.1413 38.2702 14.2085 38.0105 14.2622C37.7507 14.307 37.4865 14.3383 37.2178 14.3562C36.9491 14.3831 36.6939 14.3965 36.452 14.3965C36.0042 14.3965 35.5877 14.3562 35.2026 14.2756C34.8175 14.195 34.4816 14.0562 34.195 13.8592C33.9084 13.6621 33.68 13.4024 33.5098 13.0799C33.3486 12.7485 33.268 12.341 33.268 11.8574C33.268 11.4185 33.3352 10.9886 33.4695 10.5676C33.6128 10.1467 33.8457 9.775 34.1681 9.45257C34.4995 9.12118 34.9384 8.85696 35.4847 8.65992C36.04 8.46288 36.7297 8.36435 37.5537 8.36435C38.4493 8.36435 39.1211 8.50318 39.5689 8.78083C40.0257 9.05848 40.2541 9.49287 40.2541 10.084C40.2541 10.3258 40.2182 10.59 40.1466 10.8766C40.0749 11.1543 39.9675 11.3916 39.8241 11.5887H36.049ZM37.8358 9.98995C37.8358 9.7123 37.791 9.52422 37.7015 9.4257C37.6119 9.32718 37.5044 9.27791 37.379 9.27791C37.2357 9.27791 37.1014 9.32718 36.976 9.4257C36.8596 9.51526 36.7521 9.64065 36.6536 9.80187C36.555 9.95413 36.4655 10.1333 36.3849 10.3393C36.3043 10.5363 36.2371 10.7468 36.1833 10.9707H37.7149C37.7328 10.8632 37.7507 10.7513 37.7686 10.6348C37.7866 10.5363 37.8 10.4288 37.8089 10.3124C37.8269 10.196 37.8358 10.0885 37.8358 9.98995ZM43.0737 14.2891H40.333L42.2407 5.26094H44.9948L43.0737 14.2891ZM56.8359 14.2891H53.8533L55.0893 8.48527L51.9053 14.2891H50.0782L49.4736 8.28375L48.1839 14.2891H46.9748L48.7885 5.75802H52.2143L52.6308 10.5676L55.2103 5.75802H58.663L56.8359 14.2891ZM59.2776 9.00922C59.7344 8.78531 60.2001 8.62409 60.6748 8.52557C61.1585 8.41809 61.6959 8.36435 62.287 8.36435C62.8602 8.36435 63.3349 8.40914 63.7111 8.4987C64.0872 8.58827 64.3873 8.71814 64.6112 8.88831C64.8351 9.05848 64.9918 9.26 65.0814 9.49287C65.171 9.72574 65.2158 9.98995 65.2158 10.2855C65.2158 10.4557 65.2023 10.6393 65.1755 10.8363C65.1575 11.0334 65.1351 11.1991 65.1083 11.3334L64.4768 14.2891H62.3139L62.072 13.4292H61.9914C61.7048 13.7427 61.369 13.9845 60.9838 14.1547C60.6076 14.3159 60.2315 14.3965 59.8553 14.3965C59.6404 14.3965 59.4299 14.3652 59.2239 14.3025C59.0179 14.2398 58.8343 14.1458 58.6731 14.0204C58.5118 13.886 58.382 13.7203 58.2834 13.5233C58.1849 13.3173 58.1357 13.071 58.1357 12.7844C58.1357 12.3186 58.2611 11.9514 58.5118 11.6827C58.7716 11.4051 59.1074 11.1991 59.5194 11.0647C59.9404 10.9214 60.4106 10.8319 60.9301 10.796C61.4585 10.7602 61.9869 10.7423 62.5154 10.7423C62.5333 10.6527 62.5557 10.5273 62.5826 10.3661C62.6094 10.196 62.6229 10.0482 62.6229 9.92278C62.6229 9.76156 62.5781 9.61378 62.4885 9.47944C62.4079 9.33613 62.2333 9.26448 61.9646 9.26448C61.6511 9.26448 61.4182 9.35852 61.266 9.54661C61.1226 9.72574 61.0286 9.94517 60.9838 10.2049H59.0224L59.2776 9.00922ZM62.3676 11.3737H62.1258C61.866 11.3737 61.6421 11.4096 61.454 11.4812C61.2749 11.5439 61.1271 11.629 61.0107 11.7365C60.9032 11.8439 60.8226 11.9649 60.7689 12.0992C60.7151 12.2336 60.6883 12.3679 60.6883 12.5022C60.6883 12.7172 60.742 12.8784 60.8495 12.9859C60.9659 13.0934 61.1003 13.1471 61.2525 13.1471C61.4406 13.1471 61.6242 13.0799 61.8033 12.9456C61.9914 12.8112 62.1079 12.6321 62.1526 12.4082L62.3676 11.3737ZM66.1311 8.51214C66.4625 8.44048 66.7536 8.35988 67.0044 8.27031C67.2551 8.18075 67.4835 8.06879 67.6895 7.93444C67.9045 7.8001 68.106 7.6344 68.2941 7.43736C68.4911 7.24032 68.7016 6.99849 68.9255 6.71189H70.3093L69.9197 8.51214H70.9676L70.7929 9.41226H69.7316L69.1808 12.032C69.136 12.238 69.1002 12.4216 69.0733 12.5829C69.0464 12.7441 69.033 12.8695 69.033 12.959C69.033 13.1382 69.0957 13.2501 69.2211 13.2949C69.3554 13.3397 69.6017 13.3621 69.96 13.3621L69.7585 14.2891C69.6958 14.307 69.5973 14.3204 69.4629 14.3294C69.3375 14.3383 69.1942 14.3473 69.033 14.3562C68.8807 14.3741 68.7195 14.3831 68.5493 14.3831C68.3881 14.3921 68.2448 14.3965 68.1194 14.3965C67.8955 14.3965 67.6761 14.3786 67.4611 14.3428C67.2462 14.3159 67.0536 14.2577 66.8834 14.1682C66.7133 14.0696 66.5744 13.9308 66.467 13.7517C66.3684 13.5725 66.3192 13.3307 66.3192 13.0262C66.3192 12.9187 66.3237 12.7844 66.3326 12.6232C66.3505 12.4619 66.3819 12.2828 66.4267 12.0858L66.9909 9.41226H65.943L66.1311 8.51214ZM73.5848 11.5887C73.549 11.7857 73.5222 11.9738 73.5042 12.1529C73.4953 12.3321 73.4908 12.4933 73.4908 12.6366C73.4908 12.7172 73.4953 12.8068 73.5042 12.9053C73.5132 13.0038 73.5311 13.0979 73.558 13.1874C73.5938 13.268 73.6386 13.3397 73.6923 13.4024C73.755 13.4561 73.8401 13.483 73.9476 13.483C74.0282 13.483 74.1178 13.4561 74.2163 13.4024C74.3238 13.3486 74.4268 13.2725 74.5253 13.174C74.6328 13.0755 74.7313 12.9545 74.8208 12.8112C74.9194 12.6679 74.9955 12.5067 75.0492 12.3276H77.2525L76.9032 13.7651C76.7241 13.8815 76.5181 13.9801 76.2852 14.0607C76.0524 14.1413 75.8061 14.2085 75.5463 14.2622C75.2866 14.307 75.0224 14.3383 74.7537 14.3562C74.485 14.3831 74.2297 14.3965 73.9879 14.3965C73.5401 14.3965 73.1236 14.3562 72.7385 14.2756C72.3533 14.195 72.0175 14.0562 71.7309 13.8592C71.4443 13.6621 71.2159 13.4024 71.0457 13.0799C70.8845 12.7485 70.8039 12.341 70.8039 11.8574C70.8039 11.4185 70.871 10.9886 71.0054 10.5676C71.1487 10.1467 71.3816 9.775 71.704 9.45257C72.0354 9.12118 72.4742 8.85696 73.0206 8.65992C73.5759 8.46288 74.2655 8.36435 75.0895 8.36435C75.9852 8.36435 76.6569 8.50318 77.1047 8.78083C77.5615 9.05848 77.7899 9.49287 77.7899 10.084C77.7899 10.3258 77.7541 10.59 77.6824 10.8766C77.6108 11.1543 77.5033 11.3916 77.36 11.5887H73.5848ZM75.3717 9.98995C75.3717 9.7123 75.3269 9.52422 75.2373 9.4257C75.1478 9.32718 75.0403 9.27791 74.9149 9.27791C74.7716 9.27791 74.6372 9.32718 74.5118 9.4257C74.3954 9.51526 74.2879 9.64065 74.1894 9.80187C74.0909 9.95413 74.0013 10.1333 73.9207 10.3393C73.8401 10.5363 73.7729 10.7468 73.7192 10.9707H75.2508C75.2687 10.8632 75.2866 10.7513 75.3045 10.6348C75.3224 10.5363 75.3358 10.4288 75.3448 10.3124C75.3627 10.196 75.3717 10.0885 75.3717 9.98995Z"
          fill="black"/>
    <path d="M20.1069 2H6.02376L2 18.0951H14.4371M22.3017 18.0951H70.0382" stroke="black" stroke-width="2.19478"
          stroke-linecap="round" stroke-linejoin="round"/>
    <circle cx="18.2782" cy="18.0946" r="1.82898" fill="black"/>
    <circle cx="74.245" cy="18.0946" r="1.82898" fill="black"/>
</svg>
