<svg viewBox="0 0 31 31" fill="none" xmlns="http://www.w3.org/2000/svg">
    <path d="M23.2466 14.6931H8.48389V8.542H23.2466M21.4013 22.0745C20.9118 22.0745 20.4425 21.8801 20.0964 21.534C19.7503 21.1879 19.5559 20.7186 19.5559 20.2291C19.5559 19.7397 19.7503 19.2704 20.0964 18.9243C20.4425 18.5782 20.9118 18.3838 21.4013 18.3838C21.8907 18.3838 22.36 18.5782 22.7061 18.9243C23.0522 19.2704 23.2466 19.7397 23.2466 20.2291C23.2466 20.7186 23.0522 21.1879 22.7061 21.534C22.36 21.8801 21.8907 22.0745 21.4013 22.0745ZM10.3292 22.0745C9.83981 22.0745 9.37044 21.8801 9.02438 21.534C8.67831 21.1879 8.48389 20.7186 8.48389 20.2291C8.48389 19.7397 8.67831 19.2704 9.02438 18.9243C9.37044 18.5782 9.83981 18.3838 10.3292 18.3838C10.8186 18.3838 11.288 18.5782 11.6341 18.9243C11.9801 19.2704 12.1746 19.7397 12.1746 20.2291C12.1746 20.7186 11.9801 21.1879 11.6341 21.534C11.288 21.8801 10.8186 22.0745 10.3292 22.0745ZM6.02344 20.8443C6.02344 21.9269 6.50323 22.8987 7.25366 23.5754V25.7652C7.25366 26.0914 7.38328 26.4044 7.61399 26.6351C7.8447 26.8658 8.15761 26.9954 8.48389 26.9954H9.71412C10.0404 26.9954 10.3533 26.8658 10.584 26.6351C10.8147 26.4044 10.9443 26.0914 10.9443 25.7652V24.5349H20.7861V25.7652C20.7861 26.0914 20.9158 26.4044 21.1465 26.6351C21.3772 26.8658 21.6901 26.9954 22.0164 26.9954H23.2466C23.5729 26.9954 23.8858 26.8658 24.1165 26.6351C24.3472 26.4044 24.4768 26.0914 24.4768 25.7652V23.5754C25.2273 22.8987 25.7071 21.9269 25.7071 20.8443V8.542C25.7071 4.23621 21.3028 3.62109 15.8652 3.62109C10.4276 3.62109 6.02344 4.23621 6.02344 8.542V20.8443Z"
    />
</svg>
