<svg width="11" height="11" viewBox="0 0 11 11" fill="none" xmlns="http://www.w3.org/2000/svg">
<path fill-rule="evenodd" clip-rule="evenodd" d="M2.94186 0.403963C1.52904 0.403963 0.383721 1.6097 0.383721 3.09705V10.0557C0.383721 10.5073 0.879965 10.7584 1.21496 10.4762L2.66158 9.2579C2.84301 9.10509 3.06845 9.02184 3.3008 9.02184H8.05814C9.47096 9.02184 10.6163 7.81611 10.6163 6.32875V3.09705C10.6163 1.6097 9.47096 0.403963 8.05814 0.403963H2.94186Z" fill="#84E7DA"/>
<path fill-rule="evenodd" clip-rule="evenodd" d="M2.94186 0.807926C1.74096 0.807926 0.767442 1.8328 0.767442 3.09705V10.0557C0.767442 10.1686 0.891503 10.2313 0.975252 10.1608L2.42187 8.94246C2.67134 8.73235 2.98131 8.61788 3.3008 8.61788H8.05814C9.25904 8.61788 10.2326 7.593 10.2326 6.32875V3.09705C10.2326 1.8328 9.25904 0.807926 8.05814 0.807926H2.94186ZM0 3.09705C0 1.3866 1.31712 0 2.94186 0H8.05814C9.68288 0 11 1.3866 11 3.09705V6.32875C11 8.03921 9.68288 9.42581 8.05814 9.42581H3.3008C3.15558 9.42581 3.01468 9.47784 2.90128 9.57334L1.45467 10.7917C0.868427 11.2854 0 10.846 0 10.0557V3.09705Z" fill="#84E7DA"/>
</svg>
