<svg width="15" height="14" viewBox="0 0 15 14" fill="none" xmlns="http://www.w3.org/2000/svg">
<path d="M6.47183 0.708467C6.93822 -0.0665175 8.06178 -0.0665184 8.52817 0.708466L10.0357 3.21349C10.2033 3.49191 10.4766 3.69047 10.7931 3.76379L13.6414 4.42345C14.5226 4.62753 14.8698 5.6961 14.2769 6.37915L12.3603 8.58701C12.1473 8.83239 12.0429 9.15367 12.071 9.4774L12.3238 12.3901C12.402 13.2912 11.493 13.9516 10.6602 13.5988L7.96811 12.4583C7.66891 12.3316 7.33109 12.3316 7.03189 12.4583L4.33984 13.5988C3.507 13.9516 2.59802 13.2912 2.67623 12.3901L2.92902 9.4774C2.95711 9.15367 2.85272 8.83239 2.63971 8.58701L0.723145 6.37915C0.130215 5.6961 0.477412 4.62754 1.35859 4.42345L4.20687 3.76379C4.52343 3.69047 4.79673 3.49191 4.96428 3.21349L6.47183 0.708467Z" fill="#FFD600"/>
</svg>
