<svg width="30" height="37" viewBox="0 0 30 37" fill="none" xmlns="http://www.w3.org/2000/svg">
    <g clip-path="url(#clip0_1024_17279)">
        <path fill-rule="evenodd" clip-rule="evenodd"
              d="M18.574 29.5716C25.1327 27.9684 30 22.0526 30 15C30 6.71573 23.2843 0 15 0C6.71573 0 0 6.71573 0 15C0 22.0526 4.86729 27.9684 11.426 29.5716L15 37L18.574 29.5716Z"
              fill="white"/>
        <circle cx="15" cy="15" r="13" fill="#007BFF"/>
        <path d="M8 21.4397H9.4M9.4 21.4397H13.6M9.4 21.4397V15.4562C9.4 15.0821 9.4 14.895 9.44548 14.721C9.48578 14.5667 9.55245 14.4207 9.64199 14.2888C9.74303 14.14 9.88345 14.0166 10.1649 13.7703L13.5261 10.8293C14.0479 10.3727 14.3088 10.1444 14.6027 10.0575C14.8618 9.98084 15.138 9.98084 15.3972 10.0575C15.6913 10.1444 15.9526 10.373 16.4752 10.8303L19.8352 13.7703C20.1167 14.0166 20.2572 14.14 20.3582 14.2888C20.4477 14.4207 20.5139 14.5667 20.5542 14.721C20.5997 14.895 20.6 15.0821 20.6 15.4562V21.4397M13.6 21.4397H16.4M13.6 21.4397V18.6397C13.6 17.8665 14.2268 17.2397 15 17.2397C15.7732 17.2397 16.4 17.8665 16.4 18.6397V21.4397M16.4 21.4397H20.6M20.6 21.4397H22"
              stroke="white" stroke-width="1.4" stroke-linecap="round" stroke-linejoin="round"/>
    </g>
    <defs>
        <clipPath id="clip0_1024_17279">
            <rect width="30" height="37" fill="white"/>
        </clipPath>
    </defs>
</svg>
