<svg width="13" height="15" viewBox="0 0 13 15" fill="none" xmlns="http://www.w3.org/2000/svg">
<path fill-rule="evenodd" clip-rule="evenodd" d="M0.125 6.56076C0.125 3.16512 2.90516 0.421875 6.32292 0.421875C9.74067 0.421875 12.5208 3.16512 12.5208 6.56076C12.5208 8.67268 11.2892 10.7571 9.98398 12.2743C9.32345 13.0421 8.62237 13.6904 8.00397 14.1514C7.69527 14.3815 7.39856 14.5714 7.13075 14.7063C6.87968 14.8327 6.59296 14.9427 6.32292 14.9427C6.05287 14.9427 5.76615 14.8327 5.51509 14.7063C5.24727 14.5714 4.95056 14.3815 4.64186 14.1514C4.02346 13.6904 3.32238 13.0421 2.66185 12.2743C1.35659 10.7571 0.125 8.67268 0.125 6.56076ZM6.32422 8.38672C5.15061 8.38672 4.19922 7.43532 4.19922 6.26172C4.19922 5.08811 5.15061 4.13672 6.32422 4.13672C7.49782 4.13672 8.44922 5.08811 8.44922 6.26172C8.44922 7.43532 7.49782 8.38672 6.32422 8.38672Z" fill="#CCCCCC"/>
</svg>
