<svg width="14" height="14" viewBox="0 0 14 14" fill="none" xmlns="http://www.w3.org/2000/svg">
<circle cx="7" cy="7" r="7" fill="#FF0000"/>
<path d="M7.5399 5.98879C7.51394 6.6897 7.4885 7.39086 7.46125 8.09176C7.45149 8.34184 7.24535 8.53718 6.99758 8.5359C6.74956 8.53461 6.54882 8.3385 6.53931 8.08636C6.48893 6.74855 6.43856 5.41074 6.38895 4.07268C6.38587 3.98632 6.37867 3.89816 6.39229 3.81386C6.44318 3.50132 6.74596 3.27539 7.06081 3.30778C7.38003 3.34042 7.62421 3.60438 7.6147 3.92438C7.59388 4.61269 7.56535 5.30074 7.5399 5.98905V5.98879Z" fill="white"/>
<path d="M7.00286 10.6911C6.66281 10.6918 6.38574 10.4153 6.38574 10.0755C6.38574 9.7357 6.66333 9.45966 7.00363 9.46094C7.33956 9.46197 7.61406 9.73596 7.61586 10.0716C7.61766 10.4122 7.34213 10.6903 7.0026 10.6913L7.00286 10.6911Z" fill="white"/>
</svg>
